<svg width="49" height="50" viewBox="0 0 49 50" fill="none" xmlns="http://www.w3.org/2000/svg">
<path d="M30.3333 9.19538L16.3333 3.11009V40.4493C16.524 40.4325 16.718 40.4627 16.8975 40.54L30.3333 46.3286V9.19538ZM32.6667 10.1113V47.3339L46.6667 40.8653V3.76904L33.1728 10.0039C33.0125 10.078 32.8394 10.1138 32.6667 10.1113ZM14.001 4.20682L2.33333 9.69338V46.7932L14.0745 41.4106C14.0264 41.2827 14 41.1441 14 40.9994V4.27676C14 4.25336 14.0003 4.23005 14.001 4.20682ZM1.65286 49.672C0.880064 50.0263 0 49.4616 0 48.6115V8.9448C0 8.48866 0.265833 8.07436 0.680477 7.88427L15.8324 0.772881C16.1326 0.635279 16.477 0.63131 16.7802 0.761958L32.6668 7.6673L47.344 0.885721C48.1171 0.52851 49 1.09317 49 1.9448V41.6115C49 42.0663 48.7356 42.4798 48.3227 42.6705L33.1728 49.6705C32.872 49.8096 32.5262 49.814 32.2219 49.6829L16.4506 42.8881L1.65286 49.672Z" fill="#222132"/>
</svg>
