<svg width="111" height="89" viewBox="0 0 111 89" fill="none" xmlns="http://www.w3.org/2000/svg">
<path opacity="0.4" d="M9.45457 12.8681C-1.00255 24.2174 0.0503693 38.792 0.0836182 38.9583V83.2916C0.0836182 84.7613 0.667465 86.1709 1.70673 87.2101C2.74599 88.2494 4.15554 88.8333 5.62528 88.8333H38.8753C44.9877 88.8333 49.9586 83.8624 49.9586 77.7499V38.9583C49.9586 37.4885 49.3748 36.079 48.3355 35.0397C47.2962 34.0004 45.8867 33.4166 44.417 33.4166H27.3597C27.4768 30.6769 28.2954 28.0131 29.7371 25.6804C32.5522 21.2416 37.8556 18.2103 45.5087 16.6808L49.9586 15.7941V0.166595H44.417C28.9945 0.166595 17.2295 4.43922 9.45457 12.8681ZM70.4517 12.8681C59.989 24.2174 61.0475 38.792 61.0807 38.9583V83.2916C61.0807 84.7613 61.6646 86.1709 62.7039 87.2101C63.7431 88.2494 65.1527 88.8333 66.6224 88.8333H99.8724C105.985 88.8333 110.956 83.8624 110.956 77.7499V38.9583C110.956 37.4885 110.372 36.079 109.333 35.0397C108.293 34.0004 106.884 33.4166 105.414 33.4166H88.3568C88.4739 30.6769 89.2925 28.0131 90.7342 25.6804C93.5494 21.2416 98.8527 18.2103 106.506 16.6808L110.956 15.7941V0.166595H105.414C89.9916 0.166595 78.2267 4.43922 70.4517 12.8681Z" fill="#FFAF0F"/>
</svg>
